<?xml version="1.0" standalone="no"?>
<!DOCTYPE svg PUBLIC "-//W3C//DTD SVG 20010904//EN"
 "http://www.w3.org/TR/2001/REC-SVG-20010904/DTD/svg10.dtd">
<svg version="1.0" xmlns="http://www.w3.org/2000/svg"
 width="4514.000000pt" height="4501.000000pt" viewBox="0 0 4514.000000 4501.000000"
 preserveAspectRatio="xMidYMid meet">
<metadata>
Created by potrace 1.16, written by Peter Selinger 2001-2019
</metadata>
<g transform="translate(0.000000,4501.000000) scale(0.100000,-0.100000)"
fill="#000000" stroke="none">
<path d="M24115 30981 c-28 -5 -75 -15 -105 -24 -30 -9 -77 -19 -105 -23 -70
-9 -352 -79 -460 -114 -105 -33 -309 -109 -379 -140 -61 -28 -58 -30 90 -90
59 -23 141 -60 183 -82 176 -94 185 -98 234 -98 26 0 154 27 285 59 348 87
490 114 861 161 264 33 291 38 291 51 0 27 -228 157 -405 232 -142 60 -356 89
-490 68z"/>
<path d="M21625 30455 c-126 -28 -234 -85 -334 -179 -31 -29 -103 -91 -161
-138 -191 -156 -505 -488 -498 -526 3 -15 19 -17 128 -20 211 -5 303 30 434
163 45 45 99 95 121 111 22 16 74 57 117 91 148 121 463 338 611 422 58 33 78
56 70 79 -7 17 -405 15 -488 -3z"/>
<path d="M24966 30405 c-521 -52 -1117 -160 -1148 -207 -14 -22 -9 -31 48
-103 91 -114 118 -155 197 -305 49 -93 62 -108 102 -116 17 -3 112 4 211 15
359 41 710 61 1069 61 219 0 264 2 283 16 12 8 22 23 22 32 0 19 -80 181 -125
252 -92 148 -183 270 -235 318 -70 65 -109 68 -424 37z"/>
<path d="M22385 30397 c-76 -36 -363 -201 -475 -272 -154 -98 -421 -283 -485
-336 -11 -10 -55 -45 -98 -80 -80 -63 -104 -95 -94 -123 12 -31 179 -121 245
-132 58 -9 101 8 247 101 268 171 486 285 920 484 121 56 231 107 245 115 33
19 37 43 10 71 -26 28 -239 135 -327 164 -101 34 -131 35 -188 8z"/>
<path d="M26011 30408 c-30 -11 -26 -40 10 -79 103 -113 239 -319 336 -508 26
-52 59 -102 73 -112 17 -13 78 -27 185 -45 461 -74 748 -141 1161 -270 168
-53 178 -40 95 125 -77 153 -190 335 -278 446 -104 132 -141 168 -208 200 -88
44 -437 126 -760 179 -132 22 -217 33 -522 65 -39 4 -81 4 -92 -1z"/>
<path d="M21045 30323 c-427 -135 -561 -201 -710 -350 -139 -140 -394 -547
-362 -579 3 -3 82 20 176 52 225 75 269 104 376 246 173 229 312 372 520 537
87 69 95 77 95 104 0 21 3 21 -95 -10z"/>
<path d="M22885 29926 c-316 -122 -523 -213 -850 -378 -260 -130 -354 -186
-361 -215 -8 -31 2 -53 75 -171 78 -127 100 -135 226 -85 28 11 95 37 150 57
55 21 116 43 135 51 59 23 257 91 410 140 164 53 239 74 534 150 114 30 215
60 222 66 22 18 17 54 -17 122 -47 92 -180 284 -223 319 -39 33 -98 22 -301
-56z"/>
<path d="M19825 29738 c-419 -280 -441 -298 -494 -398 -38 -72 -58 -147 -67
-255 -7 -90 1 -115 37 -115 10 0 91 49 181 108 188 125 278 212 327 315 17 36
31 71 31 78 2 37 35 97 133 237 59 85 107 158 107 163 0 28 -67 -7 -255 -133z"/>
<path d="M23280 29235 c-326 -65 -418 -85 -600 -130 -292 -73 -617 -172 -699
-214 -83 -43 -99 -95 -82 -266 12 -116 26 -151 65 -161 13 -3 86 6 162 20 265
48 753 102 1179 131 110 7 214 19 232 25 56 20 66 49 71 200 6 196 -35 405
-83 424 -29 11 -76 5 -245 -29z"/>
<path d="M18860 28967 c-133 -123 -286 -279 -424 -432 -64 -71 -58 -98 31
-141 46 -23 71 -28 129 -29 l73 0 53 60 c28 33 112 120 186 193 l135 134 -7
66 c-3 37 -6 118 -6 180 0 61 -3 112 -8 112 -4 0 -77 -65 -162 -143z"/>
<path d="M22770 28315 c-113 -7 -331 -18 -485 -25 -400 -18 -391 -13 -444
-278 -22 -106 -26 -169 -13 -188 21 -32 58 -38 468 -84 392 -44 564 -67 877
-121 168 -29 179 -30 203 -14 36 23 43 46 120 351 89 357 92 348 -135 364
-160 12 -332 10 -591 -5z"/>
<path d="M24253 28241 c-12 -12 -23 -39 -27 -68 -20 -145 -82 -411 -127 -550
-33 -100 -38 -138 -21 -170 15 -27 34 -34 247 -88 99 -25 216 -57 260 -70 44
-14 152 -45 240 -71 162 -46 320 -97 630 -201 186 -62 214 -64 239 -15 40 78
109 324 181 649 60 267 62 283 39 311 -23 27 -58 37 -399 108 -357 75 -560
109 -878 149 -319 41 -355 42 -384 16z"/>
<path d="M18195 28130 c-22 -3 -54 -14 -71 -23 -66 -35 -245 -269 -361 -472
-61 -107 -135 -255 -128 -255 2 0 37 22 77 49 89 59 182 106 308 155 52 20
105 45 116 54 23 19 221 316 260 390 18 33 21 49 14 63 -16 30 -137 52 -215
39z"/>
<path d="M19500 27855 l-215 -112 -6 -59 c-4 -32 -10 -145 -14 -251 l-7 -192
114 -73 c62 -41 138 -89 168 -108 30 -19 57 -38 58 -42 2 -5 8 -8 14 -8 5 0
23 -9 38 -20 l29 -20 93 49 c51 28 149 79 218 114 113 58 125 67 131 96 4 17
10 131 13 254 l7 222 -206 130 c-113 72 -209 131 -213 131 -4 1 -104 -49 -222
-111z"/>
<path d="M17805 27305 c-156 -100 -214 -144 -304 -229 -115 -111 -158 -184
-235 -396 -25 -69 -59 -163 -76 -209 -34 -95 -65 -209 -58 -217 17 -16 67 29
151 138 106 136 217 253 301 316 31 23 80 60 110 83 101 75 161 173 256 418
57 146 57 164 4 169 -23 2 -58 -15 -149 -73z"/>
<path d="M17595 26548 c-166 -169 -208 -215 -336 -368 -144 -172 -179 -226
-222 -341 -38 -102 -66 -338 -67 -556 0 -120 28 -99 140 102 111 200 248 404
355 530 85 99 179 217 206 260 76 117 109 235 109 391 0 104 -4 114 -43 114
-6 0 -70 -60 -142 -132z"/>
<path d="M17734 26052 c-12 -8 -188 -243 -258 -345 -50 -73 -246 -385 -246
-393 0 -2 -28 -55 -63 -116 -87 -157 -148 -290 -154 -335 -7 -58 84 -378 119
-418 4 -5 8 -17 8 -27 0 -11 11 -30 25 -43 21 -22 27 -23 49 -14 16 8 27 23
31 43 4 17 27 82 51 143 130 329 270 622 402 842 147 246 172 318 153 439 -6
40 -22 95 -36 122 -14 27 -25 56 -25 64 0 15 -26 46 -38 46 -4 0 -12 -4 -18
-8z"/>
<path d="M20000 25652 c-19 -10 -51 -27 -70 -39 -19 -11 -82 -44 -140 -73
-135 -68 -160 -91 -160 -145 0 -61 116 -663 174 -905 146 -609 147 -610 200
-610 44 0 583 287 644 343 13 12 22 32 22 49 0 15 -30 95 -66 176 -146 325
-276 637 -398 952 -99 255 -104 264 -141 268 -16 1 -46 -6 -65 -16z"/>
<path d="M17952 25549 c-28 -26 -118 -203 -262 -514 -121 -264 -330 -846 -330
-921 0 -49 26 -88 102 -156 120 -107 229 -181 273 -186 56 -6 67 13 100 174
86 416 231 912 371 1266 53 135 45 177 -41 231 -22 14 -67 48 -100 76 -66 56
-81 61 -113 30z"/>
<path d="M19210 25319 c-63 -16 -137 -35 -164 -42 -86 -21 -86 -21 -109 -364
-21 -319 -30 -1112 -14 -1227 6 -42 16 -66 34 -84 22 -22 30 -24 76 -18 29 3
162 32 296 65 263 63 281 71 281 131 0 15 -13 102 -30 191 -58 322 -116 770
-140 1099 -13 170 -25 247 -42 267 -15 19 -59 15 -188 -18z"/>
<path d="M18412 25283 c-18 -7 -38 -50 -61 -129 -10 -38 -31 -107 -44 -154
-97 -330 -242 -1016 -263 -1250 -8 -78 7 -113 52 -130 94 -36 414 -72 480 -54
36 9 45 49 54 233 21 390 43 646 85 971 14 107 31 234 37 281 13 101 6 148
-25 177 -40 37 -263 76 -315 55z"/>
<path d="M25108 24389 c-10 -5 -66 -74 -125 -152 -212 -282 -442 -561 -657
-796 -65 -71 -86 -101 -86 -122 0 -24 35 -60 223 -231 192 -175 293 -268 542
-499 28 -25 84 -77 125 -115 41 -38 106 -99 145 -135 167 -156 167 -156 210
-145 20 5 88 75 239 246 129 146 324 386 517 636 68 89 135 176 149 193 37 47
60 93 60 117 0 38 -39 74 -259 237 -291 216 -443 330 -461 344 -8 6 -80 60
-160 120 -80 59 -152 113 -160 120 -121 96 -262 193 -277 193 -5 0 -16 -5 -25
-11z"/>
<path d="M17187 23422 c-10 -10 -17 -26 -17 -35 0 -9 -7 -52 -15 -94 -77 -410
-139 -1184 -103 -1313 22 -80 248 -295 446 -424 95 -62 129 -74 149 -54 13 14
13 45 4 248 -18 386 -11 814 20 1157 15 176 19 169 -198 321 -50 35 -124 96
-164 137 -41 41 -81 75 -90 75 -9 0 -23 -8 -32 -18z"/>
<path d="M19590 23019 c-52 -16 -183 -47 -290 -69 -263 -54 -269 -56 -291 -76
-24 -22 -24 -53 1 -229 54 -370 144 -841 235 -1220 45 -193 52 -200 170 -192
148 10 763 154 822 193 48 31 47 38 -74 364 -69 185 -195 577 -258 804 -61
218 -78 276 -106 371 -28 95 -53 101 -209 54z"/>
<path d="M23724 22823 c-38 -31 -130 -113 -204 -182 -140 -130 -290 -261 -395
-345 -33 -26 -68 -54 -78 -62 -10 -8 -42 -32 -70 -52 -105 -73 -176 -135 -188
-163 -16 -39 -5 -85 33 -139 74 -104 684 -881 707 -900 3 -3 40 -45 81 -95 41
-49 97 -114 124 -142 66 -71 91 -71 183 -1 289 219 771 628 981 832 133 129
157 85 -297 541 -208 209 -464 467 -568 573 -145 147 -195 192 -214 192 -16 0
-51 -21 -95 -57z"/>
<path d="M22136 21577 c-16 -5 -76 -39 -134 -74 -213 -130 -586 -329 -772
-412 -89 -39 -120 -65 -120 -100 0 -30 -4 -21 125 -251 54 -96 109 -195 123
-220 108 -195 433 -728 517 -849 17 -24 43 -53 58 -64 l27 -21 57 24 c70 28
483 234 643 321 165 89 441 254 468 278 12 12 22 32 22 44 0 13 -79 127 -193
278 -105 141 -206 276 -223 300 -17 24 -68 96 -114 159 -105 146 -225 318
-331 475 -30 44 -59 86 -66 92 -20 22 -57 31 -87 20z"/>
<path d="M25443 21177 c-11 -7 -57 -46 -100 -87 -96 -91 -263 -244 -318 -291
-22 -19 -42 -36 -45 -39 -39 -43 -444 -371 -602 -490 -120 -90 -129 -111 -71
-175 16 -17 46 -50 67 -75 189 -217 869 -913 931 -951 42 -27 84 -24 136 10
121 76 669 535 1034 865 132 120 135 123 135 164 0 40 10 30 -300 322 -102 96
-232 220 -290 275 -58 56 -150 144 -205 197 -301 287 -302 287 -335 287 -8 0
-25 -5 -37 -12z"/>
</g>
</svg>
